<svg xmlns="http://www.w3.org/2000/svg" viewBox="0 0 64 64" aria-labelledby="title"
aria-describedby="desc" role="img" xmlns:xlink="http://www.w3.org/1999/xlink"
width="64" height="64">
  <title>Left Key</title>
  <desc>A solid styled icon from Orion Icon Library.</desc>
  <path data-name="layer1"
  d="M54.2 2H9.8A7.8 7.8 0 0 0 2 9.8v44.4A7.8 7.8 0 0 0 9.8 62h44.4a7.8 7.8 0 0 0 7.8-7.8V9.8A7.8 7.8 0 0 0 54.2 2zM44 34H22.8l4.6 4.6a2 2 0 0 1-2.8 2.8l-8-8-1.4-1.4 9.4-9.4a2 2 0 1 1 2.8 2.8L22.8 30H44a2 2 0 0 1 0 4z"
  fill="#202020"></path>
</svg>